<?xml version="1.0" encoding="iso-8859-1"?>
<!-- Generator: Adobe Illustrator 18.0.0, SVG Export Plug-In . SVG Version: 6.00 Build 0)  -->
<!DOCTYPE svg PUBLIC "-//W3C//DTD SVG 1.1//EN" "http://www.w3.org/Graphics/SVG/1.1/DTD/svg11.dtd">
<svg version="1.1" id="Capa_1" xmlns="http://www.w3.org/2000/svg" xmlns:xlink="http://www.w3.org/1999/xlink" x="0px" y="0px"
	 viewBox="0 0 48.629 48.629" style="enable-background:new 0 0 48.629 48.629;" xml:space="preserve">
<g>
	<path style="fill:currentColour;" d="M0.198,19.507c3.911,0,7.627,0,11.324,0c3.363-4.29,6.642-8.472,9.922-12.652
		c0.559-0.714,1.066-1.482,1.705-2.117c1.405-1.398,2.673-1.399,3.721,0.25c3.181,5.004,8.154,8.313,11.857,12.809
		c0.803,0.975,1.748,1.22,2.911,1.158c1.712-0.089,3.433-0.238,5.137-0.141c0.652,0.038,1.434,0.568,1.825,1.112
		c0.171,0.238-0.453,1.099-0.783,1.634c-0.515,0.833-1.339,1.558-1.596,2.454c-1.548,5.41-3.013,10.845-4.398,16.298
		c-0.26,1.022-0.037,2.167-0.037,3.408c-1.942,1.185-4.148,1.169-6.339,1.17c-6.73,0.003-13.461-0.104-20.189,0.008
		c-3.991,0.065-4.466,0.012-5.696-3.777C7.855,35.864,6.333,30.549,4.74,25.256c-0.474-1.571-0.774-3.053-3.131-2.836
		C0.187,22.55-0.32,21.253,0.198,19.507z M38.339,41.862c1.887-6.974,3.655-13.507,5.554-20.523
		C31.27,21.621,19.145,21.893,6.99,22.166c-0.045,0.579-0.156,0.893-0.078,1.151c1.603,5.285,3.181,10.579,4.871,15.837
		c0.597,1.857,1.819,2.818,4.039,2.817c6.321-0.003,12.642,0.294,18.965,0.396C35.948,42.386,37.116,42.045,38.339,41.862z
		 M15.333,18.777c0.152,0.229,0.304,0.457,0.457,0.686c6.445-0.207,12.891-0.414,19.336-0.621c0.095-0.228,0.19-0.455,0.285-0.683
		c-2.734-2.719-5.468-5.438-7.796-7.753c-2.193,0.294-3.881,0.521-6.341,0.851C19.62,13.35,17.476,16.063,15.333,18.777z
		 M24.881,7.402c-0.327,0.433-0.625,0.758-0.813,1.138c-0.037,0.075,0.475,0.55,0.521,0.519c0.359-0.238,0.686-0.538,0.961-0.87
		C25.578,8.153,25.216,7.791,24.881,7.402z"/>
	<path style="fill:currentColour;" d="M14.963,37.646c-0.154-3.657-0.374-7.321-0.403-10.987c-0.005-0.684,0.759-1.374,1.515-2.642
		c0.514,1.298,0.904,1.877,0.958,2.486c0.272,3.09,0.507,6.186,0.651,9.283C17.766,37.558,17.678,37.562,14.963,37.646z"/>
	<path style="fill:currentColour;" d="M24.432,24.578c0,1.312-0.038,2.491,0.009,3.668c0.088,2.191,0.229,4.379,0.341,6.569
		c0.025,0.497,0.226,1.159-0.013,1.458c-0.443,0.554-1.11,1.097-1.769,1.232c-0.299,0.062-1.14-0.853-1.154-1.34
		c-0.086-3.109-0.078-6.227,0.05-9.335C21.941,25.773,22.266,24.596,24.432,24.578z"/>
	<path style="fill:currentColour;" d="M31.338,35.871c-2.2,0.92-2.629,0.748-2.826-1.374c-0.232-2.49-0.393-4.988-0.537-7.485
		c-0.027-0.47,0.019-1.082,0.295-1.396c0.354-0.401,1.011-0.822,1.472-0.758c0.422,0.059,0.953,0.697,1.083,1.176
		c0.205,0.755,0.112,1.59,0.15,2.391C31.089,30.806,31.206,33.187,31.338,35.871z"/>
	<path style="fill:currentColour;" d="M35.117,37.029c0-3.629-0.038-7.098,0.046-10.563c0.011-0.459,0.646-0.902,1.067-1.449
		c1.367,0.534,1.476,1.622,1.482,2.684c0.013,2.396-0.052,4.791-0.075,7.187C37.625,36.133,37.221,37.011,35.117,37.029z"/>
</g>
<g>
</g>
<g>
</g>
<g>
</g>
<g>
</g>
<g>
</g>
<g>
</g>
<g>
</g>
<g>
</g>
<g>
</g>
<g>
</g>
<g>
</g>
<g>
</g>
<g>
</g>
<g>
</g>
<g>
</g>
</svg>
