<?xml version="1.0" encoding="iso-8859-1"?>
<!-- Generator: Adobe Illustrator 18.0.0, SVG Export Plug-In . SVG Version: 6.00 Build 0)  -->
<!DOCTYPE svg PUBLIC "-//W3C//DTD SVG 1.1//EN" "http://www.w3.org/Graphics/SVG/1.1/DTD/svg11.dtd">
<svg version="1.1" id="Capa_1" xmlns="http://www.w3.org/2000/svg" xmlns:xlink="http://www.w3.org/1999/xlink" x="0px" y="0px"
	 viewBox="0 0 66.405 66.405" style="enable-background:new 0 0 66.405 66.405;" xml:space="preserve">
<g>
	<path style="fill:currentColour;" d="M62.254,24.534c-0.383,8.193-0.764,16.045-1.107,23.898c-0.076,1.736-0.031,3.478-0.025,5.217
		c0.005,1.307,0.229,2.391,1.136,3.578c0.76,0.996,0.498,2.769,0.722,4.44c-1.407,0.11-2.452,0.26-3.498,0.262
		c-5.544,0.011-11.088-0.066-16.632-0.016c-5.542,0.051-11.084,0.346-16.625,0.295c-6.038-0.056-12.074-0.397-18.113-0.583
		C7.293,61.6,6.463,61.71,5.647,61.825c-1.615,0.228-2.362-0.236-2.59-1.784c-0.081-0.557-0.159-1.25,0.09-1.698
		c1.591-2.863,1.057-5.974,1.076-8.989c0.038-6.09-0.053-12.183-0.178-18.273c-0.051-2.462-0.333-4.919-0.515-7.435
		C3.11,23.445,2.733,23.288,2.38,23.09c-2.524-1.419-3.136-4.144-1.373-6.476c2.792-3.692,5.584-7.389,8.521-10.965
		c0.58-0.707,1.812-1.237,2.744-1.239c6.763-0.014,13.527,0.217,20.29,0.195c6.874-0.023,13.749-0.212,20.621-0.413
		c1.204-0.036,2.068,0.256,2.804,1.179c1.442,1.808,2.923,3.584,4.39,5.372c1.677,2.044,3.393,4.057,5.024,6.137
		c1.713,2.186,1.18,5.037-1.173,6.551C63.541,23.872,62.802,24.23,62.254,24.534z M6.008,28.489c0.049,0,0.098,0.001,0.145,0.001
		c0.077,9.127,0.153,18.254,0.232,27.64c1.201-0.105,2.031-0.178,2.732-0.24c0.427-5.694,0.761-11.057,1.262-16.404
		c0.199-2.122,0.449-4.338,1.241-6.281c1.299-3.188,4.078-4.872,7.34-5.746c2.191-0.586,3.598-0.018,4.958,1.741
		c1.743,2.254,2.553,4.812,2.681,7.603c0.284,6.204,0.52,12.412,0.789,18.617c0.017,0.392,0.151,0.779,0.248,1.25
		c0.654,0.03,1.221,0.093,1.786,0.077c5.706-0.153,11.412-0.293,17.117-0.491c3.548-0.123,7.091-0.373,10.639-0.49
		c1.426-0.048,1.65-0.577,1.664-1.999c0.039-3.869,0.483-7.731,0.64-11.601c0.204-5.043,0.299-10.091,0.406-15.138
		c0.015-0.666,0.165-1.469-0.859-2.047c-0.084,3.724-0.131,7.25-0.861,10.717c-0.274-1.069-0.401-2.129-0.392-3.188
		c0.021-2.237,0.097-4.474,0.183-6.71c0.051-1.315-0.297-2.263-2.083-2.332c-0.131,4.223-0.327,8.421-0.373,12.622
		c-0.047,4.284,0.053,8.57,0.091,13.073c-1.098,0.009-1.902,0.095-2.688,0.01c-6.03-0.651-12.053-0.775-18.071,0.122
		c-0.482,0.072-0.974,0.171-1.452,0.139c-1.556-0.105-1.802-0.444-1.855-1.994c-0.158-4.537-0.374-9.072-0.524-13.61
		c-0.056-1.692,0.008-3.388,0.017-5.125c1.04-0.136,1.763-0.23,2.728-0.356c-0.11-1.248-0.213-2.418-0.322-3.66
		c-1.107,0.009-1.914,0.016-2.867,0.024c-0.208,1.2-0.409,2.36-0.609,3.52c-0.58-1.093-0.689-2.211-0.886-3.313
		c-0.149-0.837-0.45-1.649-1.504-1.675c-0.995-0.025-1.9,0.791-1.98,1.819c-0.057,0.738,0.038,1.487,0.054,2.232
		c0.014,0.671,0.013,1.343,0.019,2.014c-0.211,0.014-0.421,0.027-0.632,0.041c-0.224-1.335-0.455-2.669-0.669-4.006
		c-0.202-1.271-0.916-1.391-2.002-0.938c-0.104,0.792-0.201,1.542-0.299,2.292c-0.135,0.006-0.269,0.012-0.404,0.018
		c-0.193-0.921-0.387-1.843-0.629-2.996c-0.606-0.259-1.362-0.582-2.215-0.947c-0.11,1.122-0.183,1.866-0.256,2.61
		c-0.131,0.004-0.261,0.009-0.392,0.014c-0.144-0.597-0.29-1.193-0.465-1.909c-1.059,0.23-2.001,0.435-2.834,0.616
		c-0.164,0.879-0.287,1.538-0.409,2.196c-0.121,0.004-0.242,0.008-0.363,0.012c-0.287-0.818-0.574-1.636-0.872-2.485
		c-0.897-0.232-1.736-0.449-2.747-0.71c0.012,1.417,0.128,2.579,0,3.713c-0.117,1.039,0.69,2.285-0.712,3.315
		c-0.242-2.392-0.465-4.593-0.69-6.821c-1.221-0.119-1.819,0.355-1.85,1.489c-0.017,0.662,0.009,1.324,0.007,1.987
		c-0.009,2.052-0.022,4.104-0.032,6.155c-0.146,0.001-0.292,0.002-0.438,0.004C6.5,31.468,6.254,29.978,6.008,28.489z
		 M11.535,56.301c4.321,0.147,8.355,0.302,12.392,0.41c1.118,0.03,1.321-0.78,1.311-1.698c-0.027-2.479,0.051-4.965-0.098-7.438
		c-0.253-4.204-0.599-8.403-1.004-12.596c-0.182-1.875-1.128-3.487-2.535-4.707c-0.541-0.469-1.525-0.852-2.172-0.7
		c-2.943,0.694-5.442,2.033-6.092,5.387c-0.189,0.975-0.472,1.938-0.577,2.921c-0.324,3.039-0.648,6.08-0.851,9.128
		C11.712,49.964,11.664,52.929,11.535,56.301z M53.522,46.542c-0.045-5.316-0.088-10.486-0.134-15.931
		c-6.84-0.383-13.525-0.517-20.389,0.354c0.227,5.424,0.44,10.513,0.66,15.743C40.385,46.652,46.798,46.598,53.522,46.542z
		 M30.992,6.765c-0.615,4.507-1.752,8.841-1.531,13.351c0.096,1.951,1.088,2.946,2.964,2.671c1.118-0.163,2.224-0.598,3.261-1.073
		c1.232-0.563,1.818-1.538,1.673-3.006c-0.396-3.993-0.69-7.996-1.024-11.987C34.43,6.737,32.796,6.75,30.992,6.765z M17.183,6.067
		c-3.025,3.882-5.448,7.876-6.65,12.514c-0.133,0.512-0.232,1.227,0.018,1.611c1.066,1.637,2.825,1.894,4.578,1.837
		c1.577-0.051,2.456-1.014,2.91-2.844c0.615-2.485,1.166-4.988,1.83-7.46c0.461-1.716,1.066-3.394,1.65-5.226
		C19.98,6.345,18.679,6.216,17.183,6.067z M45.971,6.665c0.007,0.792-0.037,1.451,0.025,2.099c0.319,3.297,0.689,6.589,0.998,9.887
		c0.29,3.106,3.036,4.87,5.973,3.794c1.757-0.644,2.359-1.655,1.798-3.45c-0.936-2.994-2.037-5.935-2.984-8.925
		C50.511,6.059,50.546,6.048,45.971,6.665z M24.327,6.546c-2.534,4.279-3.449,8.796-4.145,13.367
		c-0.064,0.427,0.381,1.075,0.773,1.401c1.342,1.116,2.944,1.081,4.452,0.509c1.453-0.551,1.969-1.771,2.03-3.361
		c0.085-2.217,0.462-4.42,0.674-6.634c0.153-1.613,0.242-3.231,0.374-5.041C26.944,6.698,25.73,6.628,24.327,6.546z M39.668,22.433
		c0.983-0.008,1.876,0.075,2.742-0.041c1.919-0.257,2.57-1.014,2.542-2.931c-0.024-1.732-0.028-3.479-0.246-5.193
		c-0.328-2.583-0.834-5.145-1.257-7.667c-1.822,0.015-3.27,0.027-4.791,0.04C38.999,11.968,39.329,17.126,39.668,22.433z
		 M5.422,59.057c-0.008,0.169-0.016,0.338-0.023,0.508c2.194,0.104,4.389,0.248,6.584,0.303c5.279,0.131,10.56,0.253,15.84,0.317
		c3.8,0.047,7.601,0.029,11.4-0.022c4.199-0.057,8.396-0.188,12.596-0.28c2.722-0.06,5.445-0.09,8.166-0.185
		c0.362-0.013,0.713-0.337,1.069-0.517c-1.513-0.642-2.953-0.954-4.387-0.925c-6.29,0.127-12.577,0.483-18.866,0.511
		c-7.528,0.033-15.058-0.219-22.587-0.272C11.943,58.471,8.629,58.069,5.422,59.057z M64.321,19.146
		c-2.753-4.555-9.045-11.71-11.234-12.628c1.56,5.066,3.078,9.999,4.627,15.034c1.276,0.171,2.363,1.562,4.003,0.925
		C63.276,21.871,63.996,20.68,64.321,19.146z M13.579,7.048c-1.448-0.66-2.188-0.082-2.853,0.746
		c-2.374,2.951-4.768,5.886-7.123,8.851c-0.405,0.509-0.718,1.11-0.979,1.709c-0.824,1.882,0.003,3.35,2.032,3.447
		c1.018,0.049,2.053-0.222,3.077-0.349C8.421,15.995,10.919,11.554,13.579,7.048z M35.009,28.199
		c5.66-0.047,11.146-0.093,16.826-0.141c-0.159-1.215-0.283-2.168-0.416-3.185c-0.902-0.187-1.658-0.343-2.351-0.486
		c-0.507,1.013,0.516,2.195-0.752,2.772c-1.089-1.236-0.113-3.333-2.008-4.172c-0.616,0.392-1.222,0.779-1.694,1.08
		c-0.32,1.152,0.318,2.341-0.862,3.203c-0.316-0.98-0.592-1.832-0.883-2.733c-1.111,0.009-2.173,0.018-3.31,0.027
		c-0.23,0.926-0.448,1.802-0.767,3.084c-0.746-4.606-0.842-4.671-3.814-2.963C34.989,25.867,35,27.083,35.009,28.199z
		 M54.564,24.436c-2.158,0.231-2.185,0.292-1.712,3.631c0.63-0.005,1.289-0.011,2.189-0.018
		C54.869,26.743,54.717,25.586,54.564,24.436z"/>
	<path style="fill:currentColour;" d="M21.886,46.866c-0.25-0.261-0.922-0.662-1.097-1.219c-0.215-0.683,1.196-1.882,2.005-1.666
		c0.491,0.131,1.051,0.728,1.202,1.229C24.194,45.866,22.993,46.913,21.886,46.866z"/>
	<path style="fill:currentColour;" d="M45.283,33.252c-0.06,0.149-0.089,0.322-0.185,0.444c-2.745,3.507-5.511,6.998-8.237,10.519
		c-0.624,0.806-1.164,1.449-2.29,0.179c3.458-3.822,6.913-7.642,10.368-11.462C45.054,33.038,45.169,33.145,45.283,33.252z"/>
	<path style="fill:currentColour;" d="M39.89,44.557c1.381-2.616,3.737-4.406,5.848-6.405c-1.229,2.744-3.269,4.803-5.003,7.12
		C40.454,45.034,40.172,44.796,39.89,44.557z"/>
	<path style="fill:currentColour;" d="M45.894,43.623c0.332-2.156,1.865-3.182,3.59-4.033C48.761,41.354,47.701,42.821,45.894,43.623z"/>
</g>
<g>
</g>
<g>
</g>
<g>
</g>
<g>
</g>
<g>
</g>
<g>
</g>
<g>
</g>
<g>
</g>
<g>
</g>
<g>
</g>
<g>
</g>
<g>
</g>
<g>
</g>
<g>
</g>
<g>
</g>
</svg>
