<?xml version="1.0" encoding="UTF-8"?>
<svg enable-background="new 0 0 44.294 44.294" version="1.1" viewBox="0 0 44.294 44.294" xml:space="preserve" xmlns="http://www.w3.org/2000/svg">
<path d="m22.963 0c0.593 0.911 1.3 1.855 1.854 2.882 0.999 1.849 1.969 3.719 2.834 5.633 0.675 1.493 1.688 1.985 3.322 1.991 3.423 0.013 6.848 0.225 10.266 0.439 2.803 0.177 3.381 1.347 1.863 3.701-1.856 2.876-3.745 5.731-5.669 8.562-1.068 1.572-1.568 3.274-1.355 5.146 0.433 3.801 0.953 7.592 1.365 11.395 0.077 0.712 0.063 1.785-0.356 2.106-0.459 0.351-1.534 0.238-2.174-0.047-2.848-1.266-5.67-2.599-8.433-4.038-2.185-1.138-4.06-1.137-6.121 0.432-2.718 2.066-5.62 3.903-8.527 5.701-0.652 0.402-1.785 0.523-2.456 0.228-0.456-0.201-0.695-1.357-0.684-2.081 0.067-4.134 0.126-8.272 0.417-12.394 0.179-2.53-0.572-4.491-2.377-6.208-1.896-1.803-3.683-3.72-5.529-5.575-1.29-1.297-1.09-2.325 0.676-2.79 3.109-0.819 6.232-1.593 9.375-2.275 1.766-0.384 3.171-1.086 4.096-2.738 1.425-2.546 2.99-5.013 4.453-7.538 0.669-1.157 1.347-2.24 3.16-2.532zm16.855 14.285c-0.117-0.281-0.235-0.563-0.353-0.845-3.291 0-6.586-0.096-9.871 0.037-1.922 0.078-3.168-0.287-4.005-2.288-0.896-2.143-2.335-4.057-3.658-6.274-1.735 2.708-3.714 4.91-4.614 7.489-0.687 1.967-1.622 2.193-3.28 2.568-2.93 0.664-6.085 0.739-9.017 2.713 1.571 1.461 2.932 2.802 4.375 4.049 2.235 1.932 2.997 4.202 2.7 7.223-0.358 3.644-0.085 7.35-0.085 11.325 0.783-0.412 1.395-0.682 1.953-1.036 2.535-1.61 5.144-3.125 7.551-4.908 1.759-1.304 3.117-1.083 4.894-0.023 2.286 1.363 4.812 2.324 7.539 3.602-0.349-3.708-0.702-6.987-0.939-10.274-0.069-0.963-0.063-2.08 0.354-2.899 1-1.965 2.255-3.802 3.424-5.679 0.998-1.602 2.02-3.187 3.032-4.78z" fill="currentColour"/>















<path d="m18.875 17.375c0.39155-0.7831 0.08411-0.24275 0.625-1 0.08732-0.12225 0.15615-0.25769 0.25-0.375 0.07362-0.09203 0.17929-0.15572 0.25-0.25 0.0559-0.07454 0.05912-0.18412 0.125-0.25 0.06588-0.06588 0.17546-0.0691 0.25-0.125 0.09428-0.07071 0.14894-0.18937 0.25-0.25 0.11298-0.06779 0.25266-0.07606 0.375-0.125 0.08651-0.0346 0.15961-0.1024 0.25-0.125 0.08085-0.02021 0.16916 0.02021 0.25 0 0.09039-0.0226 0.16667-0.08333 0.25-0.125 0.20833-0.04167 0.41543-0.09007 0.625-0.125 0.2466-0.0411 0.0068 0.0822 0.5 0 0.12997-0.02166 0.24717-0.09304 0.375-0.125 0.10694-0.02674 0.50006 0 0.625 0h0.125c0.04167 0 0.08773-0.01863 0.125 0 0.0527 0.02635 0.0723 0.09865 0.125 0.125 0.30787 0.15393-0.11284-0.36284 0.375 0.125 0.06588 0.06588 0.07332 0.17248 0.125 0.25 0.03269 0.04903 0.08333 0.08333 0.125 0.125l0.375 0.375c0.04167 0.04167 0.09865 0.0723 0.125 0.125 0.03727 0.07454-0.03727 0.17546 0 0.25 0.02635 0.0527 0.10637 0.0691 0.125 0.125 0.02635 0.07906-0.02635 0.17094 0 0.25 0.01863 0.0559 0.10637 0.0691 0.125 0.125 0.02635 0.07906-0.01634 0.16828 0 0.25 0.02584 0.1292 0.09304 0.24717 0.125 0.375 0.01011 0.04042 0 0.08333 0 0.125v0.25 1c0 0.08631 0.019 0.462 0 0.5-0.02635 0.0527-0.09865 0.0723-0.125 0.125-0.28727 0.57454 0.0324 0.2176-0.25 0.5-0.04167 0.04167-0.0723 0.09865-0.125 0.125-0.03727 0.01863-0.09554-0.02946-0.125 0s0.02311 0.09033 0 0.125c-0.06537 0.09806-0.16667 0.16667-0.25 0.25l-0.25 0.25c-0.04167 0.04167-0.09865 0.0723-0.125 0.125-0.14524 0.29047 0.44025-0.03915-0.25 0.375-0.11298 0.06779-0.28183 0.03183-0.375 0.125-0.05893 0.05893 0.03727 0.17546 0 0.25-0.01863 0.03727-0.09033-0.02311-0.125 0-0.09806 0.06537-0.16667 0.16667-0.25 0.25-0.04167 0.04167-0.0723 0.09865-0.125 0.125-0.03727 0.01863-0.09554-0.02946-0.125 0-0.25863 0.25863 0.39522-0.01011-0.125 0.25-0.03727 0.01863-0.09554-0.02946-0.125 0s0.01863 0.08773 0 0.125c-0.0527 0.10541-0.1973 0.14459-0.25 0.25-0.01863 0.03727 0.02946 0.09554 0 0.125-0.15225 0.15225-0.27928 0.05855-0.375 0.25-0.01863 0.03727 0.02946 0.09554 0 0.125s-0.08773-0.01863-0.125 0c-0.0527 0.02635-0.08333 0.08333-0.125 0.125s-0.08965 0.07786-0.125 0.125c-0.09014 0.12018-0.18282 0.24063-0.25 0.375-0.01863 0.03727 0 0.08333 0 0.125-0.04167 0.08333-0.07332 0.17248-0.125 0.25-0.03269 0.04903-0.10637 0.0691-0.125 0.125-0.02635 0.07906 0.03727 0.17546 0 0.25-0.01863 0.03727-0.09554-0.02946-0.125 0s0.01318 0.08547 0 0.125c-0.02946 0.08839-0.07332 0.17248-0.125 0.25-0.03269 0.04903-0.09865 0.0723-0.125 0.125-0.01863 0.03727 0 0.08333 0 0.125-0.04167 0.125-0.06607 0.25715-0.125 0.375-0.02635 0.0527-0.09865 0.0723-0.125 0.125-0.02275 0.04551 0.0011 0.54547 0.0029 0.625" fill="none" stroke="currentColour" stroke-linecap="round" stroke-linejoin="bevel" stroke-width="1.8"/><path d="m20.594 28.906c-0.06747 0.04421-0.14801-0.01769-0.21875 0-0.03635 0.0091-0.13945 0.08115-0.15625 0.09375-0.09572 0.07179 0.05124-0.01999-0.0625 0.09375-0.02656 0.02656-0.06719 0.03594-0.09375 0.0625-0.0074 0.0074 0 0.02083 0 0.03125 0 0.01744-0.0048 0.14194 0 0.15625 0.0079 0.02377 0.12355 0.0923 0.125 0.09375 0.01647 0.01647 0.01478 0.04603 0.03125 0.0625s0.04312 0.01833 0.0625 0.03125c0.01226 0.0082 0.01807 0.02466 0.03125 0.03125 0.0093 0.0047 0.02193-0.0047 0.03125 0 0.03359 0.0168 0.0637 0.03996 0.09375 0.0625 0.01178 0.0088 0.01696 0.02768 0.03125 0.03125 0.07239 0.0181 0.12134-0.0092 0.1875-0.03125 0.03125-0.01042 0.0674-0.01149 0.09375-0.03125 0.01863-0.01397 0.01833-0.04312 0.03125-0.0625 0.0082-0.01226 0.02083-0.02083 0.03125-0.03125l0.125-0.125c0.01042-0.01042 0.02659-0.01728 0.03125-0.03125 0.0066-0.01976 0-0.04167 0-0.0625 0-0.07151 0.0066-0.08057-0.03125-0.15625-0.0066-0.01318-0.02083-0.02083-0.03125-0.03125-0.02083-0.02083-0.04482-0.03893-0.0625-0.0625-0.05311-0.07081-0.0037-0.09034-0.125-0.125-0.04006-0.01145-0.08333 0-0.125 0z" fill="none" stroke="currentColour" stroke-width="1px"/></svg>
